<!--?xml version="1.0" encoding="utf-8"?-->
<!-- Generator: Adobe Illustrator 25.2.1, SVG Export Plug-In . SVG Version: 6.00 Build 0)  -->
<svg version="1.1" id="Capa_1" xmlns="http://www.w3.org/2000/svg" x="0px" y="0px" viewBox="0 0 500 500" style="enable-background:new 0 0 500 500;" xml:space="preserve" width="500" height="500">
<style type="text/css">
	.st0{fill:#FF6600;}
	.st1{fill:#FF8E43;}
	.st2{fill:#FFB788;}
	.st3{fill:#FFFFFF;}
</style>
<g>
	<path class="st0 svg-elem-1" d="M485.9,250c0,130.3-105.6,235.9-235.9,235.9C119.7,485.9,14.1,380.3,14.1,250C14.1,119.7,119.7,14.1,250,14.1
		C380.3,14.1,485.9,119.7,485.9,250"></path>
	<path class="st1 svg-elem-2" d="M423,259.1c0-95.6-77.5-173-173-173c-92.5,0-168.1,72.6-172.8,164c-0.1,3-0.2,6-0.2,9c0,3,0.1,6,0.2,9
		c3.7,95.1,65.1,175.7,151.1,209.4c0.5,0.2,0.9,0.4,1.4,0.6c1.9,0.7,3.8,1.1,5.9,1.1c9.8,0,17.7-7.9,17.7-17.7v-29.4h-2
		C346.2,431.5,423,354.3,423,259.1"></path>
	<path class="st2 svg-elem-3" d="M394.5,295.4c0-79.8-64.7-144.5-144.5-144.5c-77.3,0-140.4,60.7-144.3,137c-0.1,2.5-0.2,5-0.2,7.5
		c0,2.5,0.1,5,0.2,7.5c3.1,79.4,54.4,146.8,126.1,174.9c0.4,0.1,0.8,0.3,1.2,0.5c1.6,0.5,3.2,0.9,4.9,0.9c8.2,0,14.8-6.6,14.8-14.8
		v-24.5h-1.7C330.4,439.3,394.5,374.9,394.5,295.4"></path>
	<path class="st3 svg-elem-4" d="M369.3,327.5c0-65.9-53.4-119.3-119.3-119.3c-63.8,0-115.9,50.1-119.1,113.1c-0.1,2.1-0.2,4.1-0.2,6.2
		c0,2.1,0.1,4.1,0.2,6.2c2.5,65.6,44.9,121.2,104.1,144.4c0.3,0.1,0.7,0.3,1,0.4c1.3,0.5,2.6,0.8,4.1,0.8c6.7,0,12.2-5.5,12.2-12.2
		v-20.3h-1.4C316.3,446.3,369.3,393.1,369.3,327.5"></path>
	<path d="M228.5,319.2c0,7.9-6.4,14.4-14.4,14.4s-14.4-6.4-14.4-14.4c0-7.9,6.4-14.4,14.4-14.4S228.5,311.2,228.5,319.2" class="svg-elem-5"></path>
	<path d="M299.6,319.2c0,7.9-6.4,14.4-14.4,14.4c-7.9,0-14.4-6.4-14.4-14.4c0-7.9,6.4-14.4,14.4-14.4
		C293.2,304.8,299.6,311.2,299.6,319.2" class="svg-elem-6"></path>
</g>
</svg>
